<svg width="124" height="33" viewBox="0 0 124 33" fill="none" xmlns="http://www.w3.org/2000/svg">
<path d="M45.4088 14.8492C45.4088 6.66893 35.2444 0 22.705 0C10.1669 0 0.00255515 6.66893 0.00255515 14.8492C0.00255515 15.0613 0 15.6452 0 15.7193C0 24.3978 8.88425 31.427 22.7025 31.427C36.6063 31.427 45.4088 24.4004 45.4088 15.7205C45.4088 15.4178 45.4088 15.2427 45.4088 14.8492Z" fill="#253E8B"/>
<path d="M44.5402 14.8428C44.5402 22.5555 34.7667 28.808 22.7103 28.808C10.6538 28.808 0.880371 22.5555 0.880371 14.8428C0.880371 7.12885 10.6538 0.876404 22.7103 0.876404C34.7667 0.876404 44.5402 7.12885 44.5402 14.8428Z" fill="#00AEEF"/>
<path d="M15.4612 10.4366C15.4497 10.4583 15.2326 10.6844 15.3731 10.8646C15.718 11.3053 16.7823 11.557 17.858 11.3156C18.498 11.1725 19.3195 10.5196 20.1154 9.88723C20.9765 9.20245 21.8325 8.51767 22.6923 8.24427C23.6019 7.95426 24.1858 8.07946 24.5716 8.19572C24.9945 8.32092 25.4915 8.59943 26.2848 9.19478C27.7783 10.3178 33.7842 15.5609 34.8216 16.4667C35.6584 16.0886 39.3723 14.4903 44.42 13.3776C43.9818 10.687 42.3439 8.22383 39.8616 6.20782C36.4019 7.6617 32.1732 8.42057 28.039 6.40073C28.0172 6.39179 25.7789 5.33268 23.5726 5.38506C20.2905 5.46044 18.8698 6.8811 17.3661 8.38352L15.4612 10.4366Z" fill="white"/>
<path d="M34.5776 17.0365C34.5073 16.9739 27.5151 10.8556 25.9322 9.66618C25.0149 8.97884 24.5052 8.80254 23.9699 8.73483C23.6914 8.69778 23.3055 8.75016 23.0372 8.82426C22.3001 9.02484 21.3368 9.66873 20.4808 10.3471C19.5955 11.0523 18.7599 11.7167 17.9857 11.8904C16.9956 12.1127 15.787 11.8496 15.2351 11.4778C15.0115 11.327 14.8544 11.1533 14.779 10.977C14.5746 10.5043 14.9502 10.1261 15.0128 10.0635L16.9419 7.97595C17.1668 7.75237 17.3917 7.5288 17.6229 7.30778C17.0007 7.38954 16.4245 7.54796 15.865 7.70382C15.1661 7.90057 14.4941 8.0871 13.8132 8.0871C13.5295 8.0871 12.008 7.83797 11.7192 7.75876C9.97278 7.28095 8.4397 6.81591 6.15156 5.74658C3.40861 7.78942 1.57402 10.342 1.04382 13.154C1.43859 13.2587 2.07355 13.4478 2.34056 13.5066C8.54701 14.8863 10.48 16.3083 10.8313 16.606C11.2108 16.1831 11.7588 15.9161 12.3708 15.9161C13.0568 15.9173 13.6765 16.261 14.0521 16.795C14.4072 16.514 14.8978 16.2751 15.5315 16.2751C15.819 16.2751 16.1179 16.3287 16.4194 16.4309C17.1195 16.6711 17.4811 17.1374 17.6689 17.559C17.904 17.453 18.1927 17.3751 18.5325 17.3763C18.8673 17.3763 19.2148 17.4517 19.5648 17.6037C20.7095 18.0943 20.8871 19.2186 20.7836 20.0656C20.8654 20.0567 20.9471 20.0528 21.0302 20.0528C22.387 20.0541 23.4908 21.1567 23.4908 22.5147C23.4908 22.9351 23.3835 23.3298 23.1957 23.676C23.5649 23.8843 24.5065 24.3532 25.333 24.2484C25.9936 24.1654 26.244 23.9392 26.3334 23.8127C26.3947 23.7259 26.4599 23.6237 26.3998 23.5508L24.6483 21.6051C24.6483 21.6051 24.3595 21.3317 24.4554 21.2269C24.5537 21.1183 24.7326 21.2742 24.8578 21.379C25.7495 22.1238 26.838 23.2468 26.838 23.2468C26.8559 23.2596 26.9287 23.4014 27.3312 23.4742C27.6774 23.5355 28.2906 23.4997 28.7148 23.151C28.8221 23.0628 28.9294 22.9529 29.0188 22.8392C29.0125 22.8443 29.0061 22.8533 28.9997 22.8558C29.4468 22.2822 28.9499 21.7022 28.9499 21.7022L26.9045 19.4064C26.9045 19.4064 26.6132 19.1356 26.7115 19.027C26.801 18.9324 26.9888 19.0755 27.1178 19.1815C27.7643 19.7232 28.679 20.6405 29.5567 21.4991C29.7266 21.6255 30.4983 22.1021 31.5178 21.4314C32.1374 21.0251 32.2613 20.5268 32.2434 20.1499C32.2013 19.6517 31.8116 19.2965 31.8116 19.2965L29.0188 16.4884C29.0188 16.4884 28.7237 16.2367 28.8285 16.109C28.9141 16.0017 29.1057 16.1562 29.2309 16.261C30.1201 17.0058 32.5296 19.2148 32.5296 19.2148C32.5641 19.239 33.3958 19.8318 34.4243 19.1764C34.7922 18.9414 35.0273 18.5875 35.0477 18.1748C35.0822 17.4607 34.5776 17.0365 34.5776 17.0365Z" fill="white"/>
<path d="M21.0302 20.597C20.5971 20.5919 20.1231 20.8487 20.0618 20.8117C20.0273 20.7887 20.0873 20.6149 20.1282 20.514C20.1703 20.4144 20.7401 18.6986 19.3501 18.1019C18.2859 17.6459 17.6356 18.1594 17.4121 18.392C17.3533 18.4533 17.3277 18.4482 17.3201 18.3702C17.2996 18.0611 17.1604 17.2255 16.2431 16.9445C14.931 16.5433 14.0865 17.4593 13.8719 17.7902C13.7761 17.0416 13.145 16.4615 12.3695 16.4603C11.5276 16.4603 10.8453 17.1412 10.8453 17.9831C10.8441 18.8238 11.5263 19.506 12.3682 19.506C12.777 19.5073 13.1475 19.3437 13.4209 19.0818C13.4299 19.0895 13.4337 19.1036 13.4286 19.1329C13.3647 19.5086 13.2472 20.8781 14.6806 21.4364C15.2555 21.6587 15.7448 21.4926 16.1498 21.209C16.2699 21.1234 16.2904 21.1592 16.2725 21.2729C16.2214 21.6255 16.2865 22.3793 17.3444 22.8073C18.1479 23.1343 18.6245 22.7996 18.9362 22.5121C19.0716 22.3882 19.1087 22.4074 19.1151 22.599C19.1534 23.6185 20.0004 24.4272 21.0276 24.4285C22.0867 24.4285 22.9452 23.5725 22.9452 22.5147C22.9465 21.4556 22.0893 20.6085 21.0302 20.597Z" fill="white"/>
<path d="M21.0304 24.2918C20.0709 24.2905 19.2903 23.5444 19.2545 22.5951C19.2533 22.5134 19.2443 22.2962 19.0616 22.2962C18.985 22.2962 18.9198 22.3422 18.8444 22.4099C18.6336 22.6054 18.3653 22.8047 17.9731 22.8047C17.7943 22.8047 17.6014 22.7625 17.3982 22.6795C16.3838 22.2694 16.3698 21.5731 16.4107 21.2933C16.4222 21.2179 16.426 21.14 16.3749 21.0799L16.3123 21.025H16.2497C16.1986 21.025 16.1449 21.0454 16.0734 21.0965C15.7795 21.3022 15.4985 21.4019 15.2123 21.4019C15.0552 21.4019 14.8942 21.37 14.7319 21.3074C13.3981 20.7887 13.5042 19.529 13.5693 19.1508C13.5783 19.0729 13.5591 19.0141 13.5106 18.9745L13.416 18.8966L13.3279 18.9809C13.0685 19.2313 12.7274 19.3693 12.371 19.3693C11.6057 19.368 10.9835 18.7471 10.9848 17.9831C10.9848 17.2178 11.6083 16.5982 12.3723 16.5982C13.0634 16.5982 13.6511 17.1182 13.7393 17.8081L13.7865 18.1799L13.9909 17.8656C14.0139 17.8285 14.5735 16.9815 15.6032 16.9828C15.7987 16.9828 16.0006 17.0134 16.205 17.0773C17.0252 17.3277 17.1644 18.0713 17.1861 18.3817C17.2002 18.5618 17.3292 18.5708 17.3548 18.5708C17.4251 18.5708 17.4774 18.5261 17.5145 18.4865C17.6691 18.3255 18.0063 18.0572 18.534 18.0572C18.7754 18.0572 19.0335 18.1147 19.298 18.2284C20.6024 18.788 20.0109 20.445 20.0045 20.4629C19.892 20.7376 19.8869 20.8589 19.993 20.9292L20.0441 20.9535H20.0824C20.1412 20.9535 20.214 20.9279 20.3341 20.887C20.5117 20.8257 20.78 20.7337 21.0304 20.7337H21.0316C22.0128 20.7452 22.8113 21.5437 22.8113 22.5147C22.81 23.4946 22.0115 24.2918 21.0304 24.2918ZM34.8486 16.3044C32.6946 14.4251 27.7172 10.0979 26.3693 9.08481C25.599 8.50607 25.0739 8.19945 24.6127 8.06275C24.4057 8.00015 24.1183 7.9286 23.749 7.9286C23.4067 7.9286 23.0387 7.98993 22.6542 8.11257C21.7829 8.38853 20.9154 9.07842 20.0747 9.74531L20.0313 9.77981C19.2494 10.402 18.442 11.0446 17.83 11.1813C17.563 11.2414 17.2884 11.272 17.015 11.272C16.3289 11.272 15.7144 11.074 15.4831 10.7801C15.4448 10.7303 15.4691 10.6524 15.5585 10.5387L15.5713 10.5234L17.4659 8.48179C18.9492 6.99725 20.3507 5.59703 23.5778 5.52293C23.6302 5.52166 23.6852 5.52038 23.7388 5.52038C25.7472 5.52166 27.7542 6.42107 27.9791 6.52455C29.8622 7.44313 31.8067 7.90944 33.7601 7.91072C35.7966 7.91199 37.8982 7.40735 40.1071 6.39041C39.8605 6.18344 39.6037 5.98158 39.3393 5.78356C37.3986 6.6242 35.55 7.04963 33.7665 7.04963C31.9434 7.04708 30.1241 6.61015 28.356 5.74779C28.2627 5.70307 26.0461 4.65802 23.7388 4.65674C23.6788 4.65674 23.6175 4.65802 23.5574 4.65929C20.8477 4.72189 19.321 5.68518 18.2938 6.52838C17.296 6.55266 16.4337 6.79284 15.6684 7.00747C14.9836 7.19655 14.3934 7.36136 13.8172 7.36136C13.5796 7.36136 13.1528 7.33964 13.1145 7.33836C12.4527 7.31792 9.11444 6.50028 6.45964 5.49483C6.1888 5.68646 5.92817 5.88449 5.67393 6.08634C8.44755 7.22338 11.8229 8.10235 12.8884 8.17134C13.1848 8.19178 13.5003 8.225 13.8159 8.225C14.5211 8.225 15.2238 8.02825 15.9047 7.8379C16.3059 7.72419 16.7492 7.60154 17.2168 7.51211C17.0916 7.63476 16.9677 7.75869 16.8425 7.88261L14.9185 9.96505C14.7664 10.1184 14.4368 10.5272 14.654 11.0293C14.7409 11.2324 14.9159 11.4266 15.1612 11.5914C15.6186 11.9006 16.44 12.1088 17.204 12.1101C17.4928 12.1101 17.7674 12.0807 18.0191 12.0245C18.8253 11.8431 19.6723 11.1685 20.5692 10.4556C21.2833 9.8884 22.2977 9.16785 23.0758 8.95577C23.2929 8.897 23.56 8.85995 23.7733 8.85995C23.8372 8.86123 23.8985 8.86251 23.9547 8.87145C24.4683 8.93533 24.964 9.11036 25.8506 9.77597C27.431 10.9628 34.4232 17.0799 34.4922 17.1412C34.496 17.145 34.9419 17.5283 34.9112 18.1684C34.8946 18.5248 34.6966 18.8416 34.3529 19.0614C34.0539 19.2505 33.7461 19.3463 33.4356 19.3463C32.968 19.3463 32.6461 19.1265 32.6243 19.1125C32.5988 19.0908 30.2033 16.8946 29.3218 16.1562C29.1813 16.0399 29.0446 15.9352 28.9066 15.9352C28.8338 15.9352 28.7686 15.9658 28.7239 16.022C28.5859 16.1932 28.7405 16.4296 28.9245 16.5854L31.7224 19.3974C31.7262 19.4012 32.0712 19.7244 32.1082 20.1563C32.1312 20.6226 31.9076 21.0122 31.4439 21.3163C31.1143 21.5335 30.7795 21.6446 30.4525 21.6446C30.0232 21.6446 29.7204 21.4479 29.654 21.4019L29.2528 21.0058C28.5195 20.284 27.7619 19.5379 27.2074 19.0754C27.072 18.963 26.9276 18.8595 26.7897 18.8595C26.722 18.8595 26.6606 18.8838 26.6134 18.9336C26.5508 19.0039 26.506 19.1304 26.6645 19.3399C26.7283 19.4255 26.805 19.497 26.805 19.497L28.8478 21.7915C28.8644 21.812 29.2682 22.2924 28.8938 22.7702L28.821 22.8609C28.761 22.9286 28.6945 22.9912 28.6319 23.0448C28.2831 23.331 27.8181 23.3617 27.6341 23.3617C27.5358 23.3617 27.44 23.3527 27.3582 23.3374C27.1563 23.3016 27.0209 23.2454 26.9545 23.1675L26.9302 23.1419C26.819 23.027 25.7893 21.9755 24.9372 21.2652C24.826 21.1706 24.6855 21.0518 24.5411 21.0518C24.4696 21.0518 24.4057 21.0799 24.3559 21.1349C24.1872 21.3188 24.4402 21.5948 24.5475 21.697L26.2901 23.6172C26.2876 23.6338 26.2659 23.6734 26.2237 23.7347C26.1611 23.8203 25.9503 24.0324 25.3179 24.1116C25.2425 24.1218 25.1646 24.1257 25.0867 24.1257C24.4351 24.1257 23.7401 23.8088 23.3824 23.6198C23.5459 23.2748 23.6302 22.8954 23.6302 22.5159C23.6302 21.0812 22.4664 19.9148 21.0329 19.9148C21.0023 19.9148 20.9703 19.9148 20.9397 19.9161C20.9857 19.262 20.8937 18.0227 19.6212 17.4772C19.2545 17.3188 18.8892 17.2383 18.5353 17.2383C18.2568 17.2383 17.9897 17.2855 17.7393 17.3814C17.4749 16.8691 17.0379 16.496 16.4669 16.3018C16.1513 16.1932 15.837 16.137 15.5342 16.137C15.0041 16.137 14.5173 16.2929 14.0816 16.602C13.6652 16.0846 13.0353 15.7767 12.3723 15.7767C11.7922 15.7767 11.2339 16.0093 10.8213 16.4194C10.2783 16.0054 8.12815 14.6384 2.37141 13.3315C2.0929 13.2689 1.45411 13.0849 1.06189 12.9712C0.996739 13.2816 0.946913 13.5972 0.913696 13.9153C0.913696 13.9153 1.97536 14.1695 2.18488 14.2168C8.06555 15.5225 10.0075 16.8806 10.3371 17.1374C10.2247 17.4044 10.1672 17.6918 10.1672 17.9831C10.1659 19.1968 11.1547 20.1869 12.3697 20.1882C12.5064 20.1882 12.6418 20.1754 12.7734 20.1511C12.9574 21.0454 13.5425 21.7238 14.4355 22.0713C14.6974 22.171 14.9619 22.2234 15.2212 22.2234C15.3886 22.2234 15.5585 22.2029 15.7233 22.1608C15.8881 22.5798 16.2599 23.1023 17.0903 23.4396C17.3816 23.5572 17.6729 23.6185 17.9552 23.6185C18.1865 23.6185 18.4126 23.5776 18.6285 23.4984C19.0259 24.4681 19.9738 25.1094 21.0291 25.1094C21.7292 25.1107 22.4012 24.8258 22.8918 24.3211C23.3108 24.5549 24.1962 24.9765 25.0905 24.9778C25.2068 24.9778 25.3153 24.9689 25.4239 24.9561C26.3131 24.8449 26.7258 24.4962 26.9161 24.2266C26.9506 24.1793 26.9813 24.1295 27.0081 24.0771C27.2177 24.1385 27.4476 24.187 27.7121 24.1883C28.1976 24.1883 28.6639 24.0222 29.134 23.6785C29.5965 23.3464 29.9248 22.8673 29.9721 22.4597C29.9734 22.4533 29.9747 22.4482 29.9759 22.4418C30.1305 22.4738 30.2915 22.4904 30.4512 22.4904C30.9507 22.4904 31.4413 22.3345 31.9115 22.0266C32.8173 21.4338 32.9744 20.6583 32.9603 20.1499C33.1175 20.1831 33.2797 20.1997 33.4407 20.1997C33.9096 20.1997 34.3708 20.0592 34.809 19.7794C35.3711 19.4204 35.7084 18.871 35.7595 18.231C35.7953 17.7966 35.688 17.3584 35.458 16.9815C36.9758 16.3274 40.4444 15.0626 44.5288 14.1414C44.5045 13.8246 44.4585 13.5116 44.4023 13.1999C39.4606 14.2973 35.7723 15.893 34.8486 16.3044Z" fill="#253E8B"/>
<path d="M120.74 11.2784C120.342 11.8061 119.774 12.0693 119.03 12.0693C118.288 12.0693 117.716 11.8061 117.316 11.2784C116.915 10.7508 116.715 9.9996 116.715 9.02737C116.715 8.05513 116.915 7.30647 117.316 6.78139C117.716 6.25759 118.288 5.99441 119.03 5.99441C119.774 5.99441 120.342 6.25759 120.74 6.78139C121.137 7.30647 121.338 8.05513 121.338 9.02737C121.338 9.9996 121.137 10.7508 120.74 11.2784ZM122.771 5.38756C121.951 4.36167 120.708 3.84808 119.038 3.84808C117.371 3.84808 116.126 4.36167 115.307 5.38756C114.487 6.41473 114.077 7.62715 114.077 9.02737C114.077 10.4519 114.487 11.6694 115.307 12.6825C116.126 13.6918 117.371 14.199 119.038 14.199C120.708 14.199 121.951 13.6918 122.771 12.6825C123.591 11.6694 124 10.4519 124 9.02737C124 7.62715 123.591 6.41473 122.771 5.38756Z" fill="#253E8B"/>
<path d="M100.536 10.0788C100.519 10.9309 100.275 11.5186 99.8066 11.8393C99.3377 12.1612 98.8254 12.3235 98.2697 12.3235C97.9184 12.3235 97.6207 12.2251 97.3754 12.0322C97.1301 11.838 97.0087 11.5237 97.0087 11.0881C97.0087 10.6013 97.208 10.241 97.6092 10.0072C97.8481 9.87181 98.2365 9.75428 98.7807 9.66101L99.3607 9.5537C99.6495 9.49876 99.8769 9.43999 100.043 9.37739C100.212 9.31607 100.374 9.2343 100.536 9.1321V10.0788ZM101.828 4.529C100.996 4.10868 100.046 3.89532 98.9749 3.89532C97.3294 3.89532 96.1681 4.32459 95.4922 5.18184C95.0668 5.7312 94.8292 6.43003 94.773 7.28217H97.231C97.2923 6.90657 97.4124 6.60889 97.5939 6.38915C97.8481 6.09147 98.2786 5.942 98.888 5.942C99.4323 5.942 99.8449 6.0161 100.126 6.17068C100.406 6.32144 100.546 6.59739 100.546 6.996C100.546 7.32433 100.365 7.56452 99.997 7.72038C99.7926 7.80981 99.454 7.88391 98.9787 7.94395L98.1074 8.05127C97.1186 8.1752 96.3661 8.38472 95.8576 8.67728C94.9263 9.21386 94.4625 10.0788 94.4625 11.2771C94.4625 12.1996 94.75 12.9137 95.3287 13.4171C95.9062 13.9204 96.6408 14.1312 97.5274 14.1734C103.086 14.4213 103.024 11.2439 103.075 10.5821V6.92445C103.075 5.75164 102.658 4.95316 101.828 4.529Z" fill="#253E8B"/>
<path d="M89.1515 6.07363C89.7877 6.07363 90.2541 6.27038 90.5556 6.66259C90.7625 6.9526 90.8916 7.28094 90.9414 7.64377H93.6843C93.5336 6.26016 93.0494 5.29431 92.2317 4.74623C91.4115 4.20199 90.3627 3.92731 89.0787 3.92731C87.5673 3.92731 86.3817 4.39107 85.5245 5.31731C84.666 6.24483 84.2367 7.54028 84.2367 9.20624C84.2367 10.6806 84.6251 11.8828 85.4018 12.8103C86.1786 13.7352 87.391 14.199 89.0391 14.199C90.6884 14.199 91.9328 13.6445 92.7722 12.533C93.2972 11.8444 93.5924 11.1137 93.655 10.342H90.9222C90.866 10.8518 90.7063 11.2682 90.4419 11.5889C90.1787 11.9083 89.7341 12.0693 89.1055 12.0693C88.2214 12.0693 87.6184 11.6668 87.2978 10.8569C87.1227 10.4263 87.0346 9.85525 87.0346 9.14364C87.0346 8.39754 87.1227 7.79963 87.2978 7.34865C87.6312 6.50034 88.2496 6.07363 89.1515 6.07363Z" fill="#253E8B"/>
<path d="M83.5023 3.92731C77.8695 3.92731 78.203 8.91495 78.203 8.91495V13.9805H80.7581V9.22924C80.7581 8.45119 80.8565 7.87373 81.0519 7.4994C81.402 6.83506 82.0881 6.50162 83.1101 6.50162C83.1868 6.50162 83.2877 6.50545 83.4129 6.51184C83.5368 6.51695 83.6786 6.52845 83.8409 6.54761V3.94647C83.7272 3.93881 83.6544 3.93625 83.6224 3.93242C83.5892 3.92986 83.5496 3.92731 83.5023 3.92731Z" fill="#253E8B"/>
<path d="M70.6768 6.57444C71.037 6.20522 71.5417 6.01997 72.192 6.01997C72.7924 6.01997 73.2932 6.19372 73.6982 6.54378C74.1019 6.89128 74.3281 7.40358 74.3741 8.07687H70.0009C70.0916 7.44447 70.3178 6.94494 70.6768 6.57444ZM74.1122 11.3334C74.0048 11.4867 73.8899 11.6183 73.7621 11.7205C73.4018 12.0182 72.9112 12.1076 72.3338 12.1076C71.787 12.1076 71.3603 12.0246 70.9732 11.7806C70.3356 11.3896 69.9766 10.7266 69.9383 9.75176H77.011C77.0212 8.91368 76.9931 8.27233 76.9254 7.82518C76.8078 7.06503 76.5498 6.3943 76.1524 5.81812C75.7117 5.164 75.1508 4.68491 74.4737 4.38085C73.7979 4.07806 73.0377 3.92731 72.192 3.92731C70.7675 3.92731 69.6113 4.37574 68.7195 5.27259C67.8278 6.17073 67.3806 7.4598 67.3806 9.14108C67.3806 10.9374 67.875 12.2328 68.8639 13.0287C69.8514 13.8247 70.9923 14.2245 72.2839 14.2245C73.849 14.2245 75.0665 13.7518 75.9365 12.8077C76.4054 12.3107 76.6992 11.8189 76.8232 11.3334H74.1122Z" fill="#253E8B"/>
<path d="M66.3545 13.9793H64.0191V8.09987C64.0191 7.56329 63.8428 6.28572 62.302 6.28572C61.2749 6.28572 60.5326 7.02671 60.5326 8.09987V13.9793H58.1959V8.09987C58.1959 7.56329 58.0362 6.28572 56.4967 6.28572C55.4517 6.28572 54.726 7.02671 54.726 8.09987V13.9793H52.3906V8.15608C52.3906 5.7287 54.0004 3.89282 56.4967 3.89282C57.736 3.89282 58.744 4.41407 59.3994 5.24833C60.0893 4.41407 61.1152 3.89282 62.302 3.89282C64.8508 3.89282 66.3545 5.6546 66.3545 8.15608V13.9793Z" fill="#253E8B"/>
<path d="M110.251 11.2989C109.878 11.8342 109.33 12.1012 108.612 12.1012C107.893 12.1012 107.357 11.8316 107.005 11.295C106.652 10.7559 106.476 9.97401 106.476 9.07716C106.476 8.24546 106.648 7.54918 106.996 6.98833C107.342 6.42747 107.886 6.1464 108.63 6.1464C109.116 6.1464 109.544 6.29971 109.914 6.60889C110.513 7.11992 110.813 8.03594 110.813 9.22408C110.813 10.0724 110.625 10.7648 110.251 11.2989ZM113.317 0.857251C113.317 0.857251 110.742 0.582572 110.742 2.65096L110.74 5.3888C110.455 4.93143 110.085 4.57243 109.627 4.31564C109.171 4.05757 108.649 3.92726 108.059 3.92726C106.782 3.92726 105.764 4.40252 105 5.35303C104.236 6.30355 103.857 7.6731 103.857 9.33012C103.857 10.7674 104.244 11.9453 105.018 12.8639C105.793 13.7799 107.314 14.1823 108.663 14.1823C113.37 14.1823 113.315 10.1452 113.315 10.1452L113.317 0.857251Z" fill="#253E8B"/>
<path d="M75.3386 23.2863C75.3386 22.323 75.1508 21.582 74.7739 21.062C74.3983 20.5446 73.8605 20.2827 73.1578 20.2827C72.4832 20.2827 71.9556 20.5446 71.5787 21.062C71.2299 21.5322 71.0549 22.2757 71.0549 23.2863C71.0549 24.2292 71.2414 24.9305 71.6183 25.4007C71.9926 25.9207 72.5331 26.18 73.2332 26.18C73.8847 26.18 74.3983 25.9207 74.7739 25.4007C75.1508 24.882 75.3386 24.1793 75.3386 23.2863ZM71.0549 30.2031C71.0549 30.548 70.9297 30.8457 70.6767 31.0923C70.4276 31.3401 70.1274 31.4641 69.7761 31.4641H68.4998V22.5811C68.4998 20.8538 69.0811 19.773 70.0392 19.0409C70.6729 18.558 71.6158 18.0968 73.3839 18.0968C74.5772 18.0968 75.9748 18.5606 76.7299 19.4804C77.5769 20.5152 77.9295 21.6689 77.9295 23.1752C77.9295 24.7338 77.5539 25.9909 76.804 26.9581C76.0528 27.8983 75.0869 28.3659 73.909 28.3659C73.283 28.3659 72.7324 28.2548 72.2571 28.0338C71.7537 27.7859 71.3551 27.4026 71.0549 26.8827V30.2031Z" fill="#00AEEF"/>
<path d="M90.6578 23.2876C90.6578 24.9919 91.1509 25.936 92.1347 26.1225C93.1171 26.3052 93.844 26.0766 94.3116 25.4352C94.5339 25.1656 94.6924 24.7377 94.792 24.1589C94.8891 23.5789 94.8968 23.004 94.8099 22.4367C94.7256 21.8669 94.5212 21.361 94.2005 20.9164C93.8824 20.4731 93.4135 20.2495 92.799 20.2495C91.9622 20.2495 91.3975 20.56 91.1011 21.1745C90.8047 21.7929 90.6578 22.4968 90.6578 23.2876ZM94.8661 27.547V26.9198C94.4241 27.6122 93.8249 28.0415 93.0749 28.2152C92.325 28.3877 91.5802 28.3264 90.8443 28.0287C90.1046 27.7336 89.4709 27.1842 88.942 26.3819C88.4131 25.577 88.1499 24.5217 88.1499 23.2122C88.1499 21.683 88.5 20.4412 89.2001 19.4907C89.9015 18.5401 91.0283 18.1058 92.578 18.0636C94.1047 18.0227 94.9926 18.369 95.8626 19.0269C96.8131 19.7487 97.3753 20.8551 97.3753 22.5837V27.8089C97.3791 29.4711 96.2191 32.5526 92.578 32.2919C90.3218 32.1284 89.0698 31.2022 88.3709 29.1057H91.0653C91.2621 29.4506 91.5623 29.7151 91.9698 29.8991C92.3736 30.0869 92.7824 30.1354 93.1848 30.0485C93.5911 29.9617 93.9603 29.7202 94.295 29.3267C94.6259 28.9319 94.8163 28.3379 94.8661 27.547Z" fill="#00AEEF"/>
<path d="M84.671 24.3186C84.6544 25.1708 84.4104 25.7572 83.9428 26.0791C83.4739 26.3998 82.9616 26.5608 82.4059 26.5608C82.0532 26.5608 81.7556 26.4637 81.5116 26.2708C81.2663 26.0779 81.1436 25.7623 81.1436 25.3267C81.1436 24.8399 81.3442 24.4796 81.7454 24.2471C81.9843 24.1104 82.3726 23.9929 82.9156 23.8996L83.4956 23.7923C83.7856 23.7374 84.013 23.6786 84.1779 23.616C84.3465 23.5547 84.5087 23.4742 84.671 23.372V24.3186ZM85.9626 18.7689C85.1309 18.3485 84.1804 18.1352 83.1111 18.1352C81.4643 18.1352 80.3043 18.5645 79.6271 19.4217C79.203 19.9698 78.9641 20.6686 78.9091 21.522H81.3685C81.4285 21.1452 81.5486 20.8475 81.73 20.6277C81.9843 20.3301 82.4148 20.1819 83.0229 20.1819C83.5697 20.1819 83.9811 20.256 84.2609 20.4093C84.5407 20.5613 84.6825 20.8373 84.6825 21.2359C84.6825 21.5629 84.4998 21.8044 84.1331 21.9602C83.93 22.0497 83.5902 22.1238 83.1149 22.1838L82.2436 22.2899C81.2548 22.4151 80.5023 22.6246 79.9938 22.9159C79.0624 23.4525 78.5974 24.3186 78.5974 25.5157C78.5974 26.4381 78.8861 27.1523 79.4649 27.6557C80.0423 28.1578 80.777 28.3711 81.6636 28.412C87.2198 28.6598 87.1584 25.4812 87.2095 24.8207V21.163C87.2095 19.9902 86.7943 19.193 85.9626 18.7689Z" fill="#00AEEF"/>
<path d="M105.013 25.4621C104.615 25.991 104.045 26.2541 103.303 26.2541C102.56 26.2541 101.987 25.991 101.589 25.4621C101.186 24.9357 100.987 24.1858 100.987 23.2135C100.987 22.2413 101.186 21.4926 101.589 20.9675C101.987 20.4425 102.56 20.1818 103.303 20.1818C104.045 20.1818 104.615 20.4425 105.013 20.9675C105.41 21.4926 105.609 22.2413 105.609 23.2135C105.609 24.1858 105.41 24.9357 105.013 25.4621ZM107.044 19.5737C106.224 18.5465 104.979 18.0342 103.31 18.0342C101.644 18.0342 100.398 18.5465 99.5791 19.5737C98.7589 20.5996 98.3488 21.812 98.3488 23.2135C98.3488 24.638 98.7589 25.8543 99.5791 26.8674C100.398 27.8767 101.644 28.3839 103.31 28.3839C104.979 28.3839 106.224 27.8767 107.044 26.8674C107.863 25.8543 108.27 24.638 108.27 23.2135C108.27 21.812 107.863 20.5996 107.044 19.5737Z" fill="#00AEEF"/>
</svg>
